# xmcd
#
# Track frame offsets: 
#        150
#        5849
#        12719
#        31279
#        53465
#        69935
#        70882
#        86297
#        87656
#        102341
#        105675
#        122485
#        127263
#        142448
#        159731
#        175609
#        177816
#        200910
#
# Disc length: 3050 seconds
#
# Revision: 1
# Processed by: cddbd v1.5.2PL0 Copyright (c) Steve Scherf et al.
# Submitted via: ExactAudioCopyFreeDBPlugin 1.0
#
DISCID=030be812
DTITLE=Aggro Berlin - Ansage Nr. 3
DYEAR=2003
DGENRE=Hip-Hop
TTITLE0=Intro.03
TTITLE1=Chez Aggro skit
TTITLE2=Aggro Teil.3 (Sido, Bushido, B-Tight and Fler)
TTITLE3=Mein Block RMX (Sido)
TTITLE4=Kugelsicher (Bushido and Fler)
TTITLE5=Live skit
TTITLE6=Bei Nacht RMX (Bushido)
TTITLE7=Live skit
TTITLE8=Weihnachts Song (Sido)
TTITLE9=call-a-neger
TTITLE10=Bums mich! (B-Tight and Bendt)
TTITLE11=Disziplin skit
TTITLE12=Oh Shit! (Fler)
TTITLE13=Früher (B-Tight)
TTITLE14=Wie 1 Gee (Bushido)
TTITLE15=MOK skit
TTITLE16=Für die Sekte (Die Sekte)
TTITLE17=live Outro
EXTD=
EXTT0=
EXTT1=
EXTT2=
EXTT3=
EXTT4=
EXTT5=
EXTT6=
EXTT7=
EXTT8=
EXTT9=
EXTT10=
EXTT11=
EXTT12=
EXTT13=
EXTT14=
EXTT15=
EXTT16=
EXTT17=
PLAYORDER=
